HIERARCHY
ROOT Hips
{
	OFFSET 0.000000 100.000000 0.000000
	CHANNELS 6 Xposition Yposition Zposition Zrotation Xrotation Yrotation
	JOINT LeftThigh
	{
		OFFSET 8.910000 -6.270020 0.000000
		CHANNELS 3 Zrotation Xrotation Yrotation
		JOINT LeftLeg
		{
			OFFSET 0.000000 -44.851646 1.566256
			CHANNELS 3 Zrotation Xrotation Yrotation
			JOINT LeftFoot
			{
				OFFSET 0.000000 -40.601860 -2.839159
				CHANNELS 3 Zrotation Xrotation Yrotation
				JOINT LeftToe
				{
					OFFSET 0.000000 -7.150443 12.486629
					CHANNELS 3 Zrotation Xrotation Yrotation
					End Site
					{
						OFFSET 0.000000 0.734473 -10.503446
					}
				}
				JOINT LeftHeel
				{
					OFFSET 0.000000 -6.428929 -1.773781
					CHANNELS 3 Zrotation Xrotation Yrotation
					End Site
					{
						OFFSET 0.000000 0.734473 -10.503445
					}
				}
			}
		}
	}
	JOINT RightThigh
	{
		OFFSET -8.910000 -6.270020 0.000000
		CHANNELS 3 Zrotation Xrotation Yrotation
		JOINT RightLeg
		{
			OFFSET 0.000000 -44.851646 1.566256
			CHANNELS 3 Zrotation Xrotation Yrotation
			JOINT RightFoot
			{
				OFFSET 0.000000 -40.601860 -2.839159
				CHANNELS 3 Zrotation Xrotation Yrotation
				JOINT RightToe
				{
					OFFSET 0.000000 -7.150443 12.486629
					CHANNELS 3 Zrotation Xrotation Yrotation
					End Site
					{
						OFFSET 0.000000 0.734473 -10.503446
					}
				}
				JOINT RightHeel
				{
					OFFSET 0.000000 -6.428929 -1.773781
					CHANNELS 3 Zrotation Xrotation Yrotation
					End Site
					{
						OFFSET 0.000000 0.734473 -10.503445
					}
				}
			}
		}
	}
	JOINT SpineLow
	{
		OFFSET 0.000000 7.000008 -0.000003
		CHANNELS 3 Zrotation Xrotation Yrotation
		JOINT SpineMid
		{
			OFFSET 0.000000 12.636139 -0.883547
			CHANNELS 3 Zrotation Xrotation Yrotation
			JOINT Chest
			{
				OFFSET 0.000000 12.597603 -1.324117
				CHANNELS 3 Zrotation Xrotation Yrotation
				JOINT LeftShoulder
				{
					OFFSET 8.000000 10.000000 -1.500001
					CHANNELS 3 Zrotation Xrotation Yrotation
					JOINT LeftArm
					{
						OFFSET 9.699991 4.500000 0.000001
						CHANNELS 3 Zrotation Xrotation Yrotation
						JOINT LeftForearm
						{
							OFFSET 27.268583 0.000000 -1.429089
							CHANNELS 3 Zrotation Xrotation Yrotation
							JOINT LeftHand
							{
								OFFSET 26.595398 -0.000031 2.326793
								CHANNELS 3 Zrotation Xrotation Yrotation
								JOINT LeftFinger
								{
									OFFSET 8.817566 -0.930298 0.771437
									CHANNELS 3 Zrotation Xrotation Yrotation
									End Site
									{
										OFFSET 0.926765 8.851242 0.081081
									}
								}
							}
						}
					}
				}
				JOINT RightShoulder
				{
					OFFSET -8.000000 10.000000 -1.500001
					CHANNELS 3 Zrotation Xrotation Yrotation
					JOINT RightArm
					{
						OFFSET -9.699991 4.500000 0.000001
						CHANNELS 3 Zrotation Xrotation Yrotation
						JOINT RightForearm
						{
							OFFSET -27.268583 0.000000 -1.429089
							CHANNELS 3 Zrotation Xrotation Yrotation
							JOINT RightHand
							{
								OFFSET -26.595398 -0.000031 2.326793
								CHANNELS 3 Zrotation Xrotation Yrotation
								JOINT RightFinger
								{
									OFFSET -8.817566 -0.930298 0.771437
									CHANNELS 3 Zrotation Xrotation Yrotation
									End Site
									{
										OFFSET -0.926765 8.851242 0.081081
									}
								}
							}
						}
					}
				}
				JOINT Neck
				{
					OFFSET 0.000000 16.000015 -0.000014
					CHANNELS 3 Zrotation Xrotation Yrotation
					JOINT Head
					{
						OFFSET 0.000000 11.883194 1.670089
						CHANNELS 3 Zrotation Xrotation Yrotation
						JOINT HeadTop
						{
							OFFSET 0.000000 15.000000 0.000000
							CHANNELS 3 Zrotation Xrotation Yrotation
							End Site
							{
								OFFSET 0.000000 0.000000 -15.000004
							}
						}
					}
				}
			}
		}
	}
}
MOTION
Frames: 14
Frame Time: 0.041667
-108.640884 106.335075 324.081757 4.350330 15.936623 -24.696806 18.306198 -41.518900 8.885994 1.481641 21.570866 25.812788 -5.314323 27.447481 -5.109504 -0.000000 -0.000002 0.000000 -0.000000 -0.000002 0.000000 -19.048238 -50.373912 -30.059540 -201.204519 134.053596 191.444301 5.742211 3.875388 -4.477638 -0.000001 0.000000 -0.000000 -0.000001 0.000000 -0.000000 -2.108459 4.038549 6.706779 -4.212041 1.855575 11.874899 -2.985646 -6.013235 11.793819 14.476584 -4.433421 1.512637 18.318199 -3.155702 -5.757397 -1.612158 -8.728939 -1.712159 10.988623 -24.571780 -16.061192 0.000001 -0.000005 -0.000002 -2.672613 5.982739 -0.805516 -14.699993 16.360485 7.977056 -1.723178 8.912764 16.539762 -11.814984 -5.598142 18.165598 0.000000 -0.000001 -0.000000 0.284785 11.983328 4.923929 -0.163232 22.969356 3.812120 0.000000 0.000001 0.000000 
-103.391327 99.289841 332.883484 4.417863 16.730808 -26.109255 15.983522 -36.702411 10.841004 2.544778 16.818738 26.279172 -4.952890 30.917241 -3.594242 -0.000000 -0.000003 -0.000001 -0.000000 -0.000003 -0.000001 -18.133606 -61.709817 -24.260045 -194.963338 133.185301 189.314266 -0.426060 0.602746 -12.421479 -0.000001 0.000000 -0.000001 -0.000001 0.000000 -0.000001 -1.922451 4.809672 6.072699 -3.896315 3.285598 10.780098 -2.781006 -4.606361 10.676345 13.269368 -4.928563 0.866822 20.210890 -7.358505 -6.514412 -1.008499 -11.105031 -1.599500 10.757140 -24.773342 -15.921116 -0.000005 -0.000000 0.000002 0.984946 8.232393 -1.037759 0.724932 17.426290 5.396015 -4.611356 7.059890 20.432482 -14.438870 -4.320238 17.111156 0.000002 -0.000000 0.000003 -0.960116 8.816132 6.425603 -1.274327 20.593592 5.066665 -0.000001 -0.000002 -0.000000 
-97.969185 91.474426 341.894165 4.689467 16.749340 -23.912018 9.201516 -33.954055 15.182286 6.110767 25.118721 6.605667 -9.773953 -9.307227 5.398876 -0.000000 0.000000 -0.000000 -0.000000 0.000000 -0.000000 -24.231194 -70.728234 -28.196937 -185.970984 133.404796 179.330605 -0.580678 -2.898587 -11.059593 0.000001 -0.000000 -0.000001 0.000001 -0.000000 -0.000001 -2.024860 5.537694 5.185557 -4.063665 4.627065 9.189342 -3.111289 -3.293304 9.052946 9.649201 -7.617819 -7.456237 26.422831 -15.314961 -9.535156 -1.678807 -10.875113 -2.400498 10.314592 -24.153528 -16.347375 0.000002 -0.000001 0.000000 8.076177 9.431368 -1.648373 17.376464 18.915080 2.977751 -6.486176 -0.137587 19.052814 -16.385906 -5.492696 14.865555 -0.000003 -0.000001 -0.000001 -2.298818 3.600134 5.275776 -2.244459 16.696066 4.274945 -0.000000 -0.000002 -0.000001 
-94.154144 86.667892 350.877380 3.939105 16.633679 -15.135462 4.321798 -40.930629 3.003878 -3.581409 47.462343 18.387286 -7.751279 -19.211881 -0.514838 -0.000000 -0.000001 -0.000000 -0.000000 -0.000001 -0.000000 -23.563002 -74.157802 -27.720751 -176.338368 143.466047 163.920756 -1.684750 -7.390952 -5.472540 -0.000000 0.000001 -0.000002 -0.000000 0.000001 -0.000002 -1.971187 6.059907 3.805030 -3.880165 5.622649 6.710401 -3.182899 -2.333381 6.567059 6.167485 -6.117318 -20.829236 22.940789 -31.179025 -17.378219 -2.987911 -5.952515 -8.520927 10.084775 -22.224192 -15.389384 0.000002 0.000000 -0.000002 16.468819 9.877967 -4.233799 38.463131 20.861510 0.442692 -5.124720 4.406172 17.360778 -13.132234 -5.450471 13.794060 0.000001 -0.000001 0.000000 -0.694642 1.056736 4.464478 -0.947981 14.783347 3.496025 -0.000001 0.000000 0.000000 
-95.534973 83.974960 363.437561 -0.590525 15.291018 -7.631966 6.040878 -35.083144 8.390963 4.424131 57.220244 10.295630 -10.185631 -26.636759 -8.097818 -0.000000 0.000001 0.000000 -0.000000 0.000001 0.000000 -17.985502 -68.459054 -30.573720 -172.536329 159.647312 167.179658 10.058263 -6.896022 2.974529 0.000001 0.000002 -0.000002 0.000001 0.000002 -0.000002 -0.338606 5.951160 1.794851 -0.767012 5.519452 3.224488 -0.430513 -2.471000 3.194607 8.827663 3.575038 -22.592075 6.606244 -35.944444 -30.111077 -4.864502 -4.628658 -21.456756 11.330520 -18.931797 -12.575520 -0.000001 0.000001 0.000000 20.674979 15.281963 -9.715237 56.010430 37.594587 6.826923 -3.981779 5.803067 12.724520 -14.841940 -7.059786 15.096072 0.000001 -0.000001 -0.000000 -1.325506 1.038937 6.883312 -1.656823 14.759523 5.413565 0.000000 -0.000002 0.000000 
-94.950813 81.090622 381.213501 -3.254209 14.185757 0.364286 4.527067 -27.082726 6.372724 10.786562 64.818352 0.236417 -5.191464 -22.066220 -3.388971 0.000000 0.000002 -0.000000 0.000000 0.000002 -0.000000 -12.645037 -68.002115 -17.807649 -171.983371 162.174045 162.108079 10.461614 -7.517115 3.336052 -0.000001 0.000003 -0.000000 -0.000001 0.000003 -0.000000 1.885530 5.773457 -1.360666 3.505201 5.181112 -2.273337 3.271221 -2.810883 -2.150161 6.332700 5.446016 -23.951143 2.183992 -11.211283 -32.225492 -7.267292 -12.780872 -51.303084 11.258010 -18.287154 -9.175752 -0.000001 -0.000002 0.000002 19.924282 18.753741 -18.839197 71.896791 27.375917 -0.374148 -6.827293 40.222386 23.878007 -18.284112 -7.567312 17.758659 -0.000002 -0.000009 -0.000002 -4.295817 -1.890044 10.204970 -4.273193 12.563484 8.225614 0.000000 -0.000001 0.000000 
-94.232574 77.413536 395.027649 -3.163868 12.234703 0.136203 4.650629 -19.383430 10.172613 17.476069 68.932209 -5.913441 -1.548488 -7.116226 -0.858946 0.000000 0.000000 0.000001 0.000000 0.000000 0.000001 -13.138410 -68.304576 -16.128073 -169.463304 149.918923 156.122879 10.083285 -6.952902 -0.837940 0.000001 -0.000001 0.000002 0.000001 -0.000001 0.000002 2.871158 5.578049 -2.903001 5.400741 4.755967 -4.959801 4.889423 -3.214357 -4.773336 3.976532 6.050085 -24.245112 1.130038 7.500433 -37.485782 1.030646 -15.091399 -63.898407 11.733593 -17.436904 -7.617341 0.000000 0.000003 -0.000000 17.473996 20.686642 -17.726561 72.323760 30.451941 -4.160772 -5.154967 48.263841 23.051692 -25.462592 -7.735050 18.308764 0.000002 -0.000003 0.000000 -5.590071 -5.586642 13.079598 -5.580961 9.777155 10.519352 0.000000 -0.000003 -0.000001 
-94.557060 77.492386 405.945374 -2.632811 11.368439 -5.877880 4.540338 -11.881028 11.359808 7.465596 70.864831 1.522470 -9.818980 8.870453 2.579499 0.000002 0.000000 -0.000001 0.000002 0.000000 -0.000001 3.431938 -63.725269 -11.483515 -179.735745 149.674648 179.065799 -8.745131 21.513665 -1.469233 -0.000000 0.000000 -0.000001 -0.000000 0.000000 -0.000001 3.531336 4.953126 -3.116055 6.583231 3.599101 -5.241926 6.047986 -4.364722 -5.025215 2.038500 10.726580 -23.522132 -6.497906 20.706782 -48.438988 25.551903 -10.933729 -56.142000 16.249604 -17.226289 -11.562357 -0.000001 -0.000002 0.000002 14.930201 18.104140 -11.734098 66.774996 35.349350 -4.848541 2.191292 38.909709 11.097626 -20.715151 -11.265514 15.185326 -0.000001 -0.000005 0.000001 -6.005188 -7.464160 16.143369 -6.232288 8.337236 12.867538 -0.000000 0.000000 0.000000 
-86.065536 73.869453 414.947510 -2.652223 14.381453 -13.539413 5.399589 -15.409883 8.785572 -5.867088 76.816733 12.212149 -16.125641 9.934572 -7.536739 -0.000001 -0.000000 -0.000000 -0.000001 -0.000000 -0.000000 0.994239 -73.878591 -3.534413 -173.279741 129.287257 175.706616 -0.149152 12.670358 -6.881446 -0.000000 0.000000 0.000002 -0.000000 0.000000 0.000002 4.412440 4.684004 -3.501703 8.185831 3.067377 -5.820871 7.595610 -4.884191 -5.555345 -3.972939 16.620251 -19.254691 -19.946188 14.594478 -53.007725 24.897942 3.931790 -53.302465 22.888743 -19.278217 -10.707617 0.000001 0.000001 0.000000 13.786553 11.931396 -0.153887 55.383859 38.535183 1.217203 0.377814 29.679631 10.484209 -18.528640 -9.957390 14.180108 0.000001 0.000001 -0.000001 -5.255116 -12.174921 19.143536 -6.066153 4.737627 14.968406 0.000000 0.000001 0.000000 
-84.471062 75.671463 424.259155 -0.907618 18.272754 -20.030986 7.077357 -28.227717 6.530172 -31.939720 83.340117 38.812362 -17.721298 7.374584 -7.474670 0.000000 0.000000 -0.000001 0.000000 0.000000 -0.000001 15.990117 -74.471014 10.630670 -180.744345 123.602354 178.962486 1.307141 6.525567 -3.243027 0.000000 -0.000000 -0.000000 0.000000 -0.000000 -0.000000 4.126018 4.392040 -2.258741 7.578436 2.619752 -3.588478 7.222078 -5.352618 -3.339122 1.148978 20.192881 -25.183717 -26.045661 16.258570 -60.343294 16.889793 2.952759 -37.694827 28.180787 -19.068102 -9.939232 -0.000000 0.000000 -0.000000 21.219231 11.649665 -1.796122 27.010815 32.231308 30.064078 0.230770 11.381362 11.870625 -19.373222 -8.951071 14.759260 0.000000 -0.000003 -0.000002 -1.936409 -14.055062 17.913684 -3.482571 3.282022 13.624668 0.000000 -0.000000 0.000000 
-82.396057 77.507088 431.645508 1.030009 20.736135 -26.751708 13.265414 -42.973990 8.527645 -114.081323 87.168944 126.923971 -14.967547 -0.857470 -10.408105 -0.000000 -0.000003 -0.000000 -0.000000 -0.000003 -0.000000 22.946797 -73.160752 13.672814 -189.025280 122.456740 193.592218 1.152221 3.908647 -6.636029 -0.000000 0.000000 0.000003 -0.000000 0.000000 0.000003 3.898979 4.243373 -1.226809 7.099724 2.408296 -1.740848 6.936757 -5.574284 -1.500768 4.741019 18.776747 -30.329213 -11.691931 19.337777 -61.442661 9.594235 -15.059524 -25.259515 29.604967 -19.394672 -9.577447 0.000000 -0.000003 -0.000002 23.016547 14.157254 -0.504645 24.654000 8.410827 46.197665 -2.737736 13.869908 17.713436 -18.827353 -6.377320 17.185335 0.000001 0.000003 -0.000004 -1.450365 -16.040947 17.899062 -3.167856 1.781183 13.504385 0.000000 0.000000 0.000000 
-79.107140 78.643646 442.879486 7.088910 20.489963 -36.905602 23.032871 -59.438198 8.715960 -142.270696 85.189111 155.564935 -10.293957 -11.410320 -3.796919 0.000001 0.000003 -0.000000 0.000001 0.000003 -0.000000 18.005726 -73.618545 6.877688 -204.671673 119.539908 210.615017 2.590562 1.924002 -1.140241 -0.000001 0.000000 -0.000000 -0.000001 0.000000 -0.000000 2.892900 4.321876 0.228040 5.191611 2.607014 0.766038 5.285942 -5.383914 0.951119 3.850901 18.505520 -27.557781 -10.997851 15.718214 -53.730564 15.379141 -12.379582 -25.331413 25.805315 -18.351738 -8.824076 -0.000001 0.000002 -0.000000 20.862323 12.193690 7.187126 26.600708 -7.693727 64.014739 -4.028716 19.078972 24.358283 -16.305221 -3.848252 18.578080 -0.000001 0.000006 -0.000000 -2.683916 -18.040223 18.548770 -4.212379 0.293263 14.079832 -0.000000 -0.000000 -0.000000 
-78.011574 79.619347 452.087708 12.368374 16.329200 -46.595055 40.080233 -63.793598 17.654243 -83.816509 85.973545 101.263572 -6.107933 -16.473971 4.809862 0.000001 0.000002 -0.000001 0.000001 0.000002 -0.000001 11.913415 -73.085544 0.279667 -218.462207 119.228943 226.100845 3.661328 4.724394 0.328336 -0.000001 -0.000002 0.000001 -0.000001 -0.000002 0.000001 0.655529 5.037015 2.149026 1.014102 3.889996 3.970545 1.431788 -4.094974 4.014034 5.735200 15.854727 -25.460734 -22.148512 -1.459625 -41.383017 13.712024 2.306575 -35.425872 20.343426 -17.102835 -6.872318 -0.000001 -0.000001 0.000003 17.446129 8.010670 9.828168 18.776998 -8.156462 76.300856 -9.941532 9.208688 31.227847 -13.424643 -4.440083 21.353792 -0.000000 0.000005 0.000002 -1.499060 -20.120931 17.399876 -3.251493 -1.267998 13.024823 -0.000000 -0.000000 -0.000000 
-78.369644 79.640945 462.439301 16.276619 11.309209 -54.932763 46.536657 -60.132548 22.749465 -0.372335 75.706609 28.272924 -8.638462 -14.830902 2.114406 -0.000001 -0.000001 0.000001 -0.000001 -0.000001 0.000001 -4.855155 -72.582610 -16.283407 -228.018762 116.728261 231.196794 3.773766 4.216269 -0.361101 -0.000001 -0.000001 -0.000003 -0.000001 -0.000001 -0.000003 -1.458517 5.113216 2.698483 -2.830801 3.960755 4.728623 -2.341080 -4.017171 4.638516 7.966400 15.461393 -18.849838 -27.092596 -9.943839 -33.805830 8.811619 1.585469 -38.597279 16.732811 -16.707018 -4.719357 -0.000002 -0.000004 0.000001 12.280905 6.165394 15.690895 5.090439 -12.274673 83.238505 -15.496683 -0.665439 34.641739 -9.770634 -4.675636 23.215060 -0.000000 0.000002 -0.000000 0.515769 -20.015210 19.508859 -2.016341 -1.289363 14.332337 -0.000000 0.000000 0.000000 
